Coordinates
version=1
nRows=10
nColumns=22
inDegrees=yes

Units are S.I. units (second, meters, Newtons, ...)
If the header above contains a line with 'inDegrees', this indicates whether rotational values are in degrees (yes) or radians (no).

endheader
time	pelvis_tilt	pelvis_list	pelvis_rotation	pelvis_tx	pelvis_ty	pelvis_tz	hip_flexion_r	hip_adduction_r	hip_rotation_r	knee_angle_r	ankle_angle_r	subtalar_angle_r	hip_flexion_l	hip_adduction_l	hip_rotation_l	knee_angle_l	ankle_angle_l	subtalar_angle_l	lumbar_extension	lumbar_bending	lumbar_rotation
      1.14000000	     -9.11857207	      1.77707657	    -32.13591150	     -1.63542768	      0.88338031	     -0.51097277	     13.78956815	      0.75371214	     -0.49101762	    -12.67021699	     12.46471541	      0.39228272	     13.09363116	     -7.65095100	     -3.20200778	    -18.84300792	     17.30416223	      6.03970121	      1.21942874	      1.80724173	     12.84149025
      1.15000000	     -9.14649853	      1.79324899	    -32.15607053	     -1.63490961	      0.88333230	     -0.51085449	     13.79378586	      0.74474576	     -0.48692814	    -12.67769208	     12.47580649	      0.39922096	     13.07866542	     -7.64167719	     -3.21970840	    -18.83894923	     17.30858616	      6.03930277	      1.22545555	      1.81456260	     12.80671895
      1.16000000	     -9.17468531	      1.81459910	    -32.17651076	     -1.63435818	      0.88327580	     -0.51072892	     13.79683408	      0.72996274	     -0.47719775	    -12.68248191	     12.50397506	      0.40898271	     13.06212756	     -7.62776346	     -3.25158142	    -18.83317143	     17.32112263	      6.03856412	      1.23930334	      1.81771355	     12.77370852
      1.17000000	     -9.19999692	      1.85022395	    -32.22155935	     -1.63382926	      0.88320338	     -0.51057726	     13.81210660	      0.70599675	     -0.43875003	    -12.69560295	     12.56168830	      0.43852402	     13.04435016	     -7.60454294	     -3.30722795	    -18.82580835	     17.34623822	      6.03500122	      1.25462113	      1.80462901	     12.77792529
      1.18000000	     -9.23226417	      1.86950487	    -32.26562333	     -1.63327899	      0.88313859	     -0.51039639	     13.81029794	      0.70277509	     -0.40682668	    -12.68586588	     12.58278322	      0.45991227	     13.01360967	     -7.60000055	     -3.35469347	    -18.79808690	     17.37086290	      6.02836588	      1.26923285	      1.80925501	     12.77112704
      1.19000000	     -9.26877878	      1.88314111	    -32.29664847	     -1.63269863	      0.88306799	     -0.51022253	     13.80367176	      0.70263455	     -0.39697441	    -12.67105250	     12.59830599	      0.46529236	     12.98447817	     -7.60002203	     -3.38777552	    -18.76537142	     17.39568136	      6.02484262	      1.28593366	      1.82149606	     12.74076864
      1.20000000	     -9.30046588	      1.88597547	    -32.35040529	     -1.63210887	      0.88300414	     -0.51000934	     13.77036931	      0.71690114	     -0.33782229	    -12.62683991	     12.62629139	      0.48569460	     12.93860729	     -7.61144843	     -3.44248881	    -18.73352474	     17.46184976	      6.00997007	      1.29153481	      1.84126605	     12.75834911
      1.21000000	     -9.34124546	      1.89686989	    -32.38298233	     -1.63149638	      0.88292149	     -0.50981395	     13.75654586	      0.72194786	     -0.33273035	    -12.59870090	     12.64112659	      0.49089551	     12.90774340	     -7.61569353	     -3.47661742	    -18.69289857	     17.49294583	      6.00431898	      1.31080177	      1.85751089	     12.72629311
      1.22000000	     -9.37800845	      1.88281223	    -32.42566621	     -1.63085610	      0.88285492	     -0.50959534	     13.69845779	      0.75108743	     -0.27672518	    -12.52607094	     12.65782253	      0.51249200	     12.86359759	     -7.64217740	     -3.51488497	    -18.67127415	     17.57701829	      5.98051125	      1.31345270	      1.89712583	     12.73517743
      1.23000000	     -9.42252740	      1.88868325	    -32.45068265	     -1.63019748	      0.88276594	     -0.50941100	     13.67450946	      0.75914533	     -0.26994927	    -12.48517765	     12.67335919	      0.51986446	     12.83718788	     -7.64907008	     -3.54527957	    -18.63566687	     17.61791741	      5.96987776	      1.33403070	      1.92463500	     12.70559335
